<svg width="34" height="32" viewBox="0 0 34 32" fill="none" xmlns="http://www.w3.org/2000/svg">
<path d="M33.2459 19.8451L30.2434 18.2581C30.5464 16.7613 30.5464 15.2258 30.2434 13.729L33.2459 12.1419C33.5912 11.9613 33.7463 11.5871 33.6335 11.2387C32.8512 8.94196 31.5191 6.86455 29.7782 5.13552C29.5104 4.87101 29.0734 4.80649 28.7351 4.98714L25.7326 6.57423C24.471 5.58068 23.019 4.81295 21.4473 4.30972V1.14199C21.4473 0.780703 21.1724 0.464575 20.7848 0.387156C18.1981 -0.141874 15.548 -0.116068 13.0883 0.387156C12.7006 0.464575 12.4257 0.780703 12.4257 1.14199V4.31617C10.8611 4.82585 9.40914 5.59359 8.14048 6.58068L5.14503 4.99359C4.79967 4.81295 4.36974 4.87101 4.10191 5.14198C2.36103 6.86455 1.02893 8.94196 0.246593 11.2452C0.126775 11.5936 0.288882 11.9678 0.63424 12.1484L3.63674 13.7355C3.33367 15.2323 3.33367 16.7677 3.63674 18.2645L0.63424 19.8516C0.288882 20.0322 0.133824 20.4064 0.246593 20.7548C1.02893 23.0516 2.36103 25.129 4.10191 26.858C4.36974 27.1225 4.80672 27.1871 5.14503 27.0064L8.14753 25.4193C9.40914 26.4129 10.8611 27.1806 12.4328 27.6838V30.858C12.4328 31.2193 12.7077 31.5354 13.0953 31.6128C15.682 32.1419 18.332 32.1161 20.7918 31.6128C21.1795 31.5354 21.4544 31.2193 21.4544 30.858V27.6838C23.019 27.1742 24.471 26.4064 25.7396 25.4193L28.7421 27.0064C29.0875 27.1871 29.5174 27.129 29.7852 26.858C31.5261 25.1354 32.8582 23.058 33.6405 20.7548C33.7463 20.4 33.5912 20.0258 33.2459 19.8451ZM16.9365 21.1548C13.8283 21.1548 11.298 18.8387 11.298 15.9935C11.298 13.1484 13.8283 10.8323 16.9365 10.8323C20.0447 10.8323 22.575 13.1484 22.575 15.9935C22.575 18.8387 20.0447 21.1548 16.9365 21.1548Z" fill="#101010"/>
</svg>
