<svg width="39" height="40" viewBox="0 0 39 40" fill="none" xmlns="http://www.w3.org/2000/svg">
<path d="M24.9016 18.0499L24.1901 16.7294L24.9016 18.0499C25.2553 17.8593 25.5735 17.6093 25.8424 17.3107L32.5227 9.89145L33.7766 8.49884C35.07 7.06234 34.9541 4.8493 33.5176 3.55587L32.6516 2.77616C31.2151 1.48273 29.0021 1.59871 27.7086 3.03521L26.4547 4.42782L19.7478 11.8767C19.5094 12.1414 19.3128 12.441 19.1649 12.7651L17.1835 17.1051C16.1883 19.2851 18.5339 21.481 20.6436 20.3442L24.9016 18.0499Z" stroke="black" stroke-width="3"/>
<g filter="url(#filter0_d_141_1410)">
<path d="M32.88 17.0667V28.5067C32.88 29.6112 31.9845 30.5067 30.88 30.5067H8C6.89543 30.5067 6 29.6112 6 28.5067V5.62671C6 4.52214 6.89543 3.62671 8 3.62671H19.44" stroke="black" stroke-width="3" stroke-linecap="round"/>
</g>
</svg>
