<svg width="37" height="39" viewBox="0 0 37 39" fill="none" xmlns="http://www.w3.org/2000/svg">
<path fill-rule="evenodd" clip-rule="evenodd" d="M9.50358 19.9796C7.0689 16.6286 7.81176 11.9383 11.1628 9.5036C14.5139 7.06891 19.2042 7.81178 21.6388 11.1628C24.0735 14.5139 23.3307 19.2042 19.9796 21.6389C16.6285 24.0735 11.9383 23.3307 9.50358 19.9796ZM9.39946 7.07655C4.70798 10.4851 3.66797 17.0515 7.07653 21.743C10.0831 25.8812 15.5468 27.1784 20.0133 25.0875L25.1214 32.1181C25.7706 33.0117 27.0214 33.2098 27.915 32.5606C28.8086 31.9113 29.0067 30.6606 28.3574 29.767L23.2493 22.7362C26.6179 19.1344 27.0724 13.5376 24.0659 9.39948C20.6573 4.708 14.0909 3.66799 9.39946 7.07655Z" fill="black"/>
</svg>
